<svg width="24" height="24" viewBox="0 0 24 24" fill="none" xmlns="http://www.w3.org/2000/svg">
<path d="M12 20H21M16.376 3.62201C16.7741 3.22392 17.314 3.00027 17.877 3.00027C18.44 3.00027 18.9799 3.22392 19.378 3.62201C19.7761 4.0201 19.9997 4.56003 19.9997 5.12301C19.9997 5.68599 19.7761 6.22592 19.378 6.62401L7.36798 18.635C7.13007 18.8729 6.836 19.0469 6.51298 19.141L3.64098 19.979C3.55493 20.0041 3.46372 20.0056 3.37689 19.9834C3.29006 19.9611 3.2108 19.9159 3.14742 19.8526C3.08404 19.7892 3.03887 19.7099 3.01662 19.6231C2.99437 19.5363 2.99588 19.4451 3.02098 19.359L3.85898 16.487C3.9532 16.1643 4.12722 15.8706 4.36498 15.633L16.376 3.62201Z" stroke="#99A1AF" stroke-width="2" stroke-linecap="round" stroke-linejoin="round"/>
</svg>
